<svg width="50" height="43" viewBox="0 0 50 43" version="1.1" xmlns="http://www.w3.org/2000/svg"><title>CCIM</title><g id="Ward-Center" stroke="none" stroke-width="1" fill="none" fill-rule="evenodd" transform="translate(-122 -14)"><g id="CCIM" transform="translate(122 14)" fill="#FFF" fill-rule="nonzero"><path d="M0 0h50v43H0V0zm2.097 2.05v1.567h45.806V2.05H2.097zm0 37.293v1.567h45.847v-1.567H2.097zm42.165-28.504h-.425v20.894h.425v.894h-4.086v-.894h1.033V12.545l-3.524 20.006h-.881l-2.917-19.995V30.16c0 .978-.086 1.595.926 1.565v.893h-2.848v-.893c.967.03.846-.737.88-1.63V10.849h-.771v-.807h3.965l2.238 14.501 2.222-14.486h3.763v.782zm-13.465.027h-1.65v20.807h1.665v.937h-5.417v-.937h1.662V10.864H25.38v-.822h5.418l-.001.824zm-6.911 21.61h-.557l-.613-1.45c-.38.662-1.002 1.777-2.359 1.777-1.884 0-3.145-2.407-3.708-4.042-.735-2.145-.993-5.107-.993-7.245 0-6.363 2.18-11.595 5.038-11.595 1.216 0 1.787 1.015 2.142 1.64l.572-1.312h.456v6.575h-.456c-.193-1.67-.43-3.688-1.2-5.01-.405-.722-.901-1.166-1.526-1.166-.545 0-.982.349-1.26.697-.668.878-.932 2.39-1.049 4.062-.097 1.321-.167 3.965-.167 6.362 0 1.135.026 2.266.045 3.368.096 3.936.405 6.897 2.217 6.897 1.956 0 2.548-4.186 2.977-6.992h.437l.004 7.434zm-9.656.01h-.557l-.612-1.45c-.385.662-1.003 1.772-2.364 1.772-1.88 0-3.14-2.401-3.708-4.041-.734-2.14-.998-5.1-.998-7.246 0-6.366 2.181-11.6 5.04-11.6 1.214 0 1.791 1.015 2.146 1.64l.567-1.312h.46v6.575h-.46c-.188-1.67-.428-3.684-1.191-5.014-.406-.722-.906-1.165-1.527-1.165-.545 0-.981.349-1.26.696-.669.883-.932 2.391-1.048 4.062-.096 1.327-.167 3.97-.167 6.367 0 1.134.02 2.271.045 3.369.096 3.94.406 6.902 2.219 6.902 1.954 0 2.547-4.192 2.973-6.998h.436l.006 7.442zM2.056 6.47v30.301h45.847v-30.3H2.056z" id="Combined-Shape"/><path d="M44.274 10.843h-.425V31.74h.425v.892h-4.086v-.892h1.033V12.55l-3.525 20.007h-.88L33.898 12.56v17.614c0 .978-.086 1.594.926 1.564v.892h-2.85v-.892c.968.03.847-.737.882-1.636V10.854h-.772v-.807h3.965l2.24 14.502 2.222-14.487h3.762v.781zM30.831 10.871h-1.653v20.821h1.669v.94h-5.43v-.94h1.665V10.871h-1.679v-.824h5.428zM23.911 32.504h-.557l-.612-1.45c-.38.663-1.002 1.779-2.358 1.779-1.884 0-3.144-2.41-3.707-4.046-.734-2.146-.992-5.112-.992-7.253 0-6.37 2.18-11.608 5.037-11.608 1.215 0 1.786 1.016 2.14 1.642l.573-1.313h.456v6.58h-.456c-.193-1.671-.43-3.691-1.2-5.015-.405-.722-.9-1.166-1.525-1.166-.545 0-.981.35-1.26.697-.669.88-.931 2.393-1.048 4.066-.097 1.323-.167 3.97-.167 6.37 0 1.136.025 2.267.045 3.371.096 3.94.405 6.905 2.217 6.905 1.954 0 2.547-4.193 2.976-7.001h.436l.002 7.442zM14.234 32.51h-.557l-.61-1.45c-.385.661-1.002 1.773-2.361 1.773-1.877 0-3.135-2.404-3.703-4.046-.733-2.14-.995-5.108-.995-7.25 0-6.373 2.178-11.61 5.03-11.61 1.214 0 1.79 1.015 2.144 1.64l.566-1.312h.46v6.58h-.46c-.186-1.671-.428-3.686-1.19-5.011-.405-.722-.905-1.166-1.525-1.166-.544 0-.98.35-1.258.697-.668.884-.93 2.393-1.047 4.066-.096 1.328-.166 3.974-.166 6.372 0 1.136.02 2.272.045 3.371.096 3.944.405 6.908 2.215 6.908 1.952 0 2.544-4.196 2.969-7.004h.435l.008 7.442z" id="Shape"/></g></g></svg>